<svg width="18" height="18" viewBox="0 0 18 18" fill="none" xmlns="http://www.w3.org/2000/svg">
<path d="M6.79318 0.295364H6.7844L1.29367 0.304145L0.389282 11.4963L3.91026 11.4934L4.64489 9.12561L9.00001 9.13146C9.00001 9.13146 8.81855 0.851462 8.9766 0.778291C8.4205 0.453413 7.7005 0.295364 6.79318 0.295364ZM2.78343 3.84853C2.79806 3.38902 3.17855 3.02902 3.63514 3.04366C4.09465 3.05536 4.45465 3.43878 4.44294 3.89536C4.43123 4.35488 4.04782 4.71195 3.59123 4.70024C3.13465 4.68853 2.77172 4.30805 2.78343 3.84853Z" fill="black"/>
<path d="M4.44293 3.89848C4.43122 4.35799 4.04781 4.71506 3.59122 4.70336C3.13171 4.69165 2.77171 4.30824 2.78342 3.85165C2.79805 3.39214 3.17854 3.03214 3.63513 3.04677C4.09464 3.05848 4.45464 3.43897 4.44293 3.89848Z" fill="black"/>
<path d="M6.86344 12.8985L6.80197 17.6956L0.333679 17.7044V12.8985H6.86344Z" fill="black"/>
<path d="M4.44293 3.89848C4.43122 4.35799 4.04781 4.71506 3.59122 4.70336C3.13171 4.69165 2.77171 4.30824 2.78342 3.85165C2.79805 3.39214 3.17854 3.03214 3.63513 3.04677C4.09464 3.05848 4.45464 3.43897 4.44293 3.89848Z" fill="white"/>
<path d="M17.6664 12.9012L13.2147 12.8954L12.041 9.20756L13.5454 9.20171L14.2361 11.4437L17.6312 11.4466L16.7239 0.304145L11.4234 0.295364H11.4117C10.4751 0.295364 9.66441 0.45634 8.9766 0.775364C8.81855 0.848535 8.66929 0.924633 8.5288 1.01536C8.38538 1.10317 8.24782 1.20268 8.11904 1.31097C6.76392 2.40561 6.09368 4.40171 6.09075 7.33146L6.07904 8.28853L6.07319 8.71L6.06733 9.12561L6.01465 13.1119L6.0088 13.5305L6.00294 13.949L5.96782 16.8524L5.96197 17.271L5.95612 17.6924V17.6954H17.6693V12.9012H17.6664ZM6.80197 16.8612V16.8554L6.84002 13.9519L6.91612 8.29439L6.92782 7.33732C6.93075 4.08853 7.80587 2.51975 8.91514 1.77341C9.03514 1.69146 9.15807 1.61829 9.28685 1.55683C9.41855 1.48951 9.55612 1.43683 9.69075 1.38707C10.2673 1.18219 10.8673 1.12951 11.4117 1.12951H11.4205L15.9571 1.13536L16.7268 10.6037L14.8625 10.6007L14.1688 8.35585L10.9025 8.37049L12.5268 13.4924L12.6059 13.7324H13.7561L16.8117 13.7354L16.8264 16.8612H6.80197Z" fill="black"/>
<path d="M16.8264 16.8612H6.802V16.8554L6.84005 13.952L6.91615 8.29442L6.92786 7.33734C6.93078 4.08856 7.8059 2.51978 8.91517 1.77344C9.03517 1.69149 9.1581 1.61832 9.28688 1.55686C9.41859 1.48954 9.55615 1.43686 9.69078 1.3871C10.2674 1.18222 10.8674 1.12954 11.4118 1.12954H11.4205L15.9571 1.13539L16.7269 10.6037L14.8625 10.6008L14.1688 8.35588L10.9025 8.37051L12.5269 13.4925L12.6059 13.7325H13.7561L16.8118 13.7354L16.8264 16.8612Z" fill="white"/>
<path d="M14.7571 3.87224C14.7454 3.38638 14.3415 3.00297 13.8556 3.02053C13.3698 3.03224 12.9864 3.43614 13.0039 3.92199C13.0156 4.40785 13.4195 4.79126 13.9054 4.7737C14.3883 4.75907 14.7688 4.35517 14.7571 3.87224Z" fill="black"/>
</svg>
