<svg width="21" height="21" viewBox="0 0 21 21" fill="none" xmlns="http://www.w3.org/2000/svg">
<g clip-path="url(#clip0_211_2865)">
<path d="M22.1643 -1.17133H-1.16901V22.162H22.1643V-1.17133Z" fill="#EDE1CA"/>
<path d="M8.79201 3.76367H8.78501L4.53368 3.76833L3.83368 12.432L6.55901 12.4297L7.12835 10.5957L10.5 10.6003C10.5 10.6003 10.36 4.18833 10.4813 4.13233C10.052 3.88267 9.49435 3.76367 8.79201 3.76367ZM5.68635 6.51234C5.69801 6.15767 5.99201 5.87767 6.34668 5.88933C6.70135 5.89867 6.98135 6.195 6.97201 6.54967C6.96268 6.90434 6.66635 7.182 6.31168 7.17267C5.95701 7.16334 5.67701 6.867 5.68635 6.51234Z" fill="black"/>
<path d="M6.97199 6.54967C6.96266 6.90434 6.66632 7.182 6.31166 7.17267C5.95699 7.16334 5.67699 6.867 5.68632 6.51234C5.69799 6.15767 5.99199 5.87767 6.34666 5.88934C6.70132 5.89867 6.98132 6.195 6.97199 6.54967Z" fill="black"/>
<path d="M8.84567 13.517L8.799 17.234L3.78934 17.2387V13.517H8.84567Z" fill="black"/>
<path d="M6.97199 6.54967C6.96266 6.90434 6.66632 7.182 6.31166 7.17267C5.95699 7.16334 5.67699 6.867 5.68632 6.51234C5.69799 6.15767 5.99199 5.87767 6.34666 5.88934C6.70132 5.89867 6.98132 6.195 6.97199 6.54967Z" fill="white"/>
<path d="M17.2107 13.5217L13.7643 13.517L12.8567 10.661L14.021 10.6563L14.5553 12.3923L17.185 12.3947L16.4827 3.76833L12.376 3.76367H12.3667C11.641 3.76367 11.0133 3.88733 10.4813 4.13467C10.36 4.19067 10.2433 4.25134 10.1337 4.32134C10.0217 4.389 9.91666 4.466 9.81632 4.55C8.76632 5.397 8.24832 6.944 8.24599 9.212L8.23666 9.954L8.23199 10.2807L8.22732 10.6027L8.18766 13.6897L8.18299 14.014L8.17832 14.3383L8.15032 16.5853L8.14566 16.9097L8.14099 17.2363V17.2387H17.2083V13.5217H17.2107ZM8.79899 16.5877V16.583L8.82932 14.336L8.88766 9.95633L8.89699 9.21434C8.89932 6.699 9.57599 5.48334 10.4347 4.907C10.528 4.844 10.6237 4.788 10.7217 4.739C10.8243 4.68767 10.9293 4.64567 11.0343 4.60833C11.48 4.44967 11.9443 4.41 12.3667 4.41H12.3737L15.8853 4.41467L16.4803 11.7437L15.036 11.7413L14.4993 10.003L11.97 10.017L13.23 13.979L13.2907 14.1657H14.182L16.548 14.168L16.5597 16.5877H8.79899Z" fill="black"/>
<path d="M16.5596 16.5877H8.79898V16.583L8.82931 14.336L8.88765 9.95633L8.89698 9.21433C8.89931 6.699 9.57598 5.48333 10.4346 4.907C10.528 4.844 10.6236 4.788 10.7216 4.739C10.8243 4.68767 10.9293 4.64567 11.0343 4.60833C11.48 4.44967 11.9443 4.41 12.3666 4.41H12.3736L15.8853 4.41467L16.4803 11.7437L15.036 11.7413L14.4993 10.003L11.97 10.017L13.23 13.979L13.2906 14.1657H14.182L16.548 14.168L16.5596 16.5877Z" fill="white"/>
<path d="M14.9567 6.52867C14.9473 6.153 14.6347 5.85667 14.259 5.86834C13.8833 5.87767 13.587 6.19034 13.5987 6.566C13.608 6.94167 13.9207 7.238 14.2963 7.22634C14.672 7.217 14.966 6.90434 14.9567 6.52867Z" fill="black"/>
</g>
<defs>
<clipPath id="clip0_211_2865">
<rect width="21" height="21" rx="5" fill="white"/>
</clipPath>
</defs>
</svg>
