<svg width="21" height="21" viewBox="0 0 21 21" fill="none" xmlns="http://www.w3.org/2000/svg">
<rect width="21" height="21" rx="3.0875" fill="white"/>
<path d="M15.2 18.6998H5.79999C3.89999 18.6998 2.39999 16.9998 2.39999 14.8998V6.0998C2.39999 3.9998 3.89999 2.2998 5.79999 2.2998H15.2C17.1 2.2998 18.6 3.9998 18.6 6.0998V14.9998C18.6 16.9998 17.1 18.6998 15.2 18.6998Z" fill="#E0E0E0"/>
<path d="M15.2 19.1998H5.79999C3.59999 19.1998 1.89999 17.2998 1.89999 14.8998V6.0998C1.89999 3.6998 3.69999 1.7998 5.79999 1.7998H15.2C17.4 1.7998 19.1 3.6998 19.1 6.0998V14.9998C19.1 17.2998 17.4 19.1998 15.2 19.1998ZM5.79999 2.7998C4.19999 2.7998 2.89999 4.2998 2.89999 6.0998V14.9998C2.89999 16.7998 4.19999 18.2998 5.79999 18.2998H15.2C16.8 18.2998 18.1 16.7998 18.1 14.9998V6.0998C18.1 4.2998 16.8 2.7998 15.2 2.7998H5.79999Z" fill="black"/>
<path d="M14.7 14.9C15.3627 14.9 15.9 14.3627 15.9 13.7C15.9 13.0373 15.3627 12.5 14.7 12.5C14.0373 12.5 13.5 13.0373 13.5 13.7C13.5 14.3627 14.0373 14.9 14.7 14.9Z" fill="#787C7E"/>
<path d="M14.7 15.3001C13.8 15.3001 13.1 14.6001 13.1 13.7001C13.1 12.8001 13.8 12.1001 14.7 12.1001C15.6 12.1001 16.3 12.8001 16.3 13.7001C16.3 14.6001 15.6 15.3001 14.7 15.3001ZM14.7 12.9001C14.2 12.9001 13.9 13.3001 13.9 13.7001C13.9 14.1001 14.3 14.5001 14.7 14.5001C15.1 14.5001 15.5 14.1001 15.5 13.7001C15.5 13.3001 15.1 12.9001 14.7 12.9001Z" fill="black"/>
<path d="M10.5 14.9C11.1628 14.9 11.7 14.3627 11.7 13.7C11.7 13.0373 11.1628 12.5 10.5 12.5C9.83728 12.5 9.30002 13.0373 9.30002 13.7C9.30002 14.3627 9.83728 14.9 10.5 14.9Z" fill="#787C7E"/>
<path d="M10.5 15.3001C9.60002 15.3001 8.90002 14.6001 8.90002 13.7001C8.90002 12.8001 9.60002 12.1001 10.5 12.1001C11.4 12.1001 12.1 12.8001 12.1 13.7001C12.1 14.6001 11.4 15.3001 10.5 15.3001ZM10.5 12.9001C10 12.9001 9.70002 13.3001 9.70002 13.7001C9.70002 14.1001 10 14.5001 10.5 14.5001C11 14.5001 11.3 14.1001 11.3 13.7001C11.3 13.3001 11 12.9001 10.5 12.9001Z" fill="black"/>
<path d="M6.30001 14.9C6.96275 14.9 7.50001 14.3627 7.50001 13.7C7.50001 13.0373 6.96275 12.5 6.30001 12.5C5.63726 12.5 5.10001 13.0373 5.10001 13.7C5.10001 14.3627 5.63726 14.9 6.30001 14.9Z" fill="#787C7E"/>
<path d="M6.30001 15.3001C5.40001 15.3001 4.70001 14.6001 4.70001 13.7001C4.70001 12.8001 5.40001 12.1001 6.30001 12.1001C7.20001 12.1001 7.90001 12.8001 7.90001 13.7001C7.90001 14.6001 7.20001 15.3001 6.30001 15.3001ZM6.30001 12.9001C5.80001 12.9001 5.50001 13.3001 5.50001 13.7001C5.50001 14.1001 5.80001 14.5001 6.30001 14.5001C6.80001 14.5001 7.10001 14.1001 7.10001 13.7001C7.10001 13.3001 6.70001 12.9001 6.30001 12.9001Z" fill="black"/>
<path d="M8.49999 9.9999H5.09999C4.69999 9.9999 4.39999 9.6999 4.39999 9.2999V6.5999C4.39999 6.1999 4.69999 5.8999 5.09999 5.8999H8.49999V9.9999Z" fill="#77A76A"/>
<path d="M8.5 10.4H5.1C4.5 10.4 4 9.9 4 9.3V6.6C4 6 4.5 5.5 5.1 5.5H8.5C8.7 5.5 8.9 5.7 8.9 5.9V9.9C8.9 10.2 8.7 10.4 8.5 10.4ZM5.1 6.3C5 6.3 4.8 6.5 4.8 6.6V9.3C4.8 9.5 4.9 9.6 5.1 9.6H8.1V6.3H5.1Z" fill="black"/>
<path d="M12.5 5.8999H8.5V9.8999H12.5V5.8999Z" fill="#E9C342"/>
<path d="M12.5 10.4H8.50001C8.30001 10.4 8.10001 10.2 8.10001 10V6C8.10001 5.7 8.20001 5.5 8.50001 5.5H12.5C12.7 5.5 12.9 5.7 12.9 5.9V9.9C12.9 10.2 12.7 10.4 12.5 10.4ZM8.90001 9.6H12.1V6.3H8.90001V9.6Z" fill="black"/>
<path d="M15.9 10H12.5V6H15.9C16.3 6 16.6 6.3 16.6 6.7V9.4C16.6 9.7 16.3 10 15.9 10Z" fill="#787C7E"/>
<path d="M15.9 10.4H12.5C12.3 10.4 12.1 10.2 12.1 10V6C12.1 5.7 12.3 5.5 12.5 5.5H15.9C16.5 5.5 17 6 17 6.6V9.3C17 9.6 16.9 9.8 16.7 10.1C16.5 10.2 16.2 10.4 15.9 10.4ZM12.9 9.6H15.9C16 9.6 16 9.6 16.1 9.5C16.1 9.5 16.2 9.4 16.2 9.3V6.6C16.2 6.4 16.1 6.3 15.9 6.3H12.9V9.6Z" fill="black"/>
</svg>
